<!-- Generator: Adobe Illustrator 15.0.0, SVG Export Plug-In . SVG Version: 6.00 Build 0)  -->
<!DOCTYPE svg PUBLIC "-//W3C//DTD SVG 1.1//EN" "http://www.w3.org/Graphics/SVG/1.1/DTD/svg11.dtd"[]>
<svg version="1.1" id="Слой_1" xmlns="http://www.w3.org/2000/svg" xmlns:xlink="http://www.w3.org/1999/xlink" x="0px" y="0px" width="50px" height="50px" viewBox="0 0 50 50" enable-background="new 0 0 50 50" xml:space="preserve" fill="#40373F">
<rect fill="none" width="50" height="50" />
<path d="M25,1C16.178,1,9,8.178,9,17c0,14.114,14.625,30.949,15.248,31.659C24.438,48.876,24.712,49,25,49  c0.31-0.021,0.567-0.127,0.757-0.347C26.38,47.931,41,30.813,41,17C41,8.178,33.822,1,25,1z M25,24c-3.313,0-6-2.687-6-6  s2.687-6,6-6s6,2.687,6,6S28.313,24,25,24z" fill="#40373F" />
</svg>